<?xml version="1.0" encoding="UTF-8"?>
<svg xmlns="http://www.w3.org/2000/svg" xmlns:xlink="http://www.w3.org/1999/xlink" width="1012.5pt" height="487.499991pt" viewBox="0 0 1012.5 487.499991" version="1.2">
<defs>
<clipPath id="clip1">
  <path d="M 0.269531 0 L 1011.730469 0 L 1011.730469 109 L 0.269531 109 Z M 0.269531 0 "/>
</clipPath>
</defs>
<g id="surface1">
<g clip-path="url(#clip1)" clip-rule="nonzero">
<path style=" stroke:none;fill-rule:nonzero;fill:rgb(99.21875%,66.668701%,33.729553%);fill-opacity:1;" d="M 1104.9375 -33.351562 C 1095.886719 -49.316406 1076.636719 -55.933594 1060.257812 -61.398438 C 1017.019531 -75.78125 970.617188 -78.515625 925.363281 -80.671875 C 875.515625 -82.972656 825.664062 -84.699219 775.957031 -86.28125 C 675.109375 -89.445312 574.214844 -91.601562 473.269531 -92.753906 C 461.203125 -92.898438 448.992188 -92.898438 436.921875 -93.183594 C 354.605469 -103.394531 272.289062 -113.03125 189.257812 -109.148438 C 144.867188 -107.277344 99.46875 -101.957031 56.804688 -89.589844 C 21.605469 -79.378906 -15.027344 -60.96875 -30.542969 -25.875 C -43.757812 3.753906 -40.308594 40.859375 -12.726562 61.140625 C 4.367188 73.507812 26.492188 78.6875 46.746094 83 C 69.789062 87.679688 93.015625 91.132812 116.421875 93.355469 C 311.941406 113.347656 510.191406 113.347656 705.996094 95.800781 C 803.253906 87.171875 899.9375 73.988281 996.042969 56.25 C 1031.382812 49.777344 1081.808594 47.042969 1102.351562 12.09375 C 1110.25 -1.136719 1113.125 -18.972656 1104.9375 -33.351562 Z M 1104.9375 -33.351562 "/>
</g>
</g>
</svg>
