<?xml version="1.0" encoding="UTF-8"?>
<svg xmlns="http://www.w3.org/2000/svg" xmlns:xlink="http://www.w3.org/1999/xlink" width="1012.5pt" height="487.499991pt" viewBox="0 0 1012.5 487.499991" version="1.2">
<defs>
<clipPath id="clip1">
  <path d="M 0.269531 142 L 1011.730469 142 L 1011.730469 487 L 0.269531 487 Z M 0.269531 142 "/>
</clipPath>
<clipPath id="clip2">
  <path d="M 0.269531 0 L 1011.730469 0 L 1011.730469 310 L 0.269531 310 Z M 0.269531 0 "/>
</clipPath>
<clipPath id="clip3">
  <path d="M 0.269531 0 L 1011.730469 0 L 1011.730469 189 L 0.269531 189 Z M 0.269531 0 "/>
</clipPath>
</defs>
<g id="surface1">
<g clip-path="url(#clip1)" clip-rule="nonzero">
<path style=" stroke:none;fill-rule:nonzero;fill:rgb(99.21875%,66.668701%,33.729553%);fill-opacity:1;" d="M 1093.417969 264.183594 C 1079.066406 238.914062 1048.542969 228.445312 1022.574219 219.792969 C 954.003906 197.027344 880.425781 192.703125 808.667969 189.289062 C 729.625 185.648438 650.578125 182.914062 571.757812 180.410156 C 411.84375 175.402344 251.851562 171.988281 91.785156 170.167969 C 72.652344 169.941406 53.289062 169.941406 34.152344 169.484375 C -96.375 153.320312 -226.90625 138.070312 -358.574219 144.214844 C -428.960938 147.175781 -500.949219 155.597656 -568.605469 175.175781 C -624.414062 191.339844 -682.503906 220.476562 -707.105469 276.019531 C -728.0625 322.914062 -722.597656 381.648438 -678.859375 413.746094 C -651.75 433.320312 -616.667969 441.515625 -584.550781 448.347656 C -548.011719 455.753906 -511.183594 461.21875 -474.066406 464.738281 C -164.03125 496.378906 150.332031 496.378906 460.820312 468.605469 C 615.039062 454.949219 768.347656 434.082031 920.746094 406.003906 C 976.785156 395.761719 1056.742188 391.4375 1089.316406 336.117188 C 1101.847656 315.175781 1106.402344 286.949219 1093.417969 264.183594 Z M 1093.417969 264.183594 "/>
</g>
<g clip-path="url(#clip2)" clip-rule="nonzero">
<path style=" stroke:none;fill-rule:nonzero;fill:rgb(99.21875%,66.668701%,33.729553%);fill-opacity:1;" d="M 1144.28125 84.898438 C 1129.929688 59.628906 1099.402344 49.15625 1073.433594 40.507812 C 1004.867188 17.742188 931.289062 13.417969 859.53125 10.003906 C 780.484375 6.359375 701.4375 3.628906 622.621094 1.125 C 462.707031 -3.882812 302.714844 -7.296875 142.648438 -9.121094 C 123.511719 -9.347656 104.148438 -9.347656 85.015625 -9.800781 C -45.515625 -25.964844 -176.042969 -41.21875 -307.710938 -35.070312 C -378.101562 -32.109375 -450.085938 -23.6875 -517.742188 -4.109375 C -573.554688 12.050781 -631.640625 41.191406 -656.242188 96.734375 C -677.203125 143.628906 -671.734375 202.359375 -627.996094 234.457031 C -600.890625 254.035156 -565.808594 262.230469 -533.6875 269.058594 C -497.148438 276.46875 -460.320312 281.929688 -423.207031 285.449219 C -113.171875 317.09375 201.191406 317.09375 511.683594 289.320312 C 665.902344 275.660156 819.210938 254.792969 971.609375 226.71875 C 1027.648438 216.472656 1107.605469 212.148438 1140.179688 156.832031 C 1152.707031 135.890625 1157.265625 107.660156 1144.28125 84.898438 Z M 1144.28125 84.898438 "/>
</g>
<g clip-path="url(#clip3)" clip-rule="nonzero">
<path style=" stroke:none;fill-rule:nonzero;fill:rgb(99.21875%,66.668701%,33.729553%);fill-opacity:1;" d="M 1204.167969 -36.117188 C 1189.816406 -61.386719 1159.289062 -71.855469 1133.320312 -80.507812 C 1064.753906 -103.269531 991.175781 -107.597656 919.417969 -111.011719 C 840.371094 -114.652344 761.324219 -117.386719 682.507812 -119.890625 C 522.59375 -124.898438 362.601562 -128.3125 202.535156 -130.132812 C 183.398438 -130.359375 164.035156 -130.359375 144.902344 -130.816406 C 14.371094 -146.976562 -116.15625 -162.230469 -247.824219 -156.085938 C -318.214844 -153.125 -390.199219 -144.703125 -457.855469 -125.125 C -513.664062 -108.960938 -571.753906 -79.824219 -596.355469 -24.277344 C -617.3125 22.617188 -611.847656 81.347656 -568.109375 113.445312 C -541 133.023438 -505.921875 141.21875 -473.800781 148.046875 C -437.261719 155.453125 -400.433594 160.917969 -363.320312 164.4375 C -53.285156 196.078125 261.078125 196.078125 571.570312 168.304688 C 725.789062 154.648438 879.097656 133.78125 1031.496094 105.703125 C 1087.535156 95.460938 1167.492188 91.136719 1200.066406 35.820312 C 1212.59375 14.875 1217.152344 -13.351562 1204.167969 -36.117188 Z M 1204.167969 -36.117188 "/>
</g>
</g>
</svg>
